<?xml version="1.0" standalone="no"?>
<!DOCTYPE svg PUBLIC "-//W3C//DTD SVG 20010904//EN"
 "http://www.w3.org/TR/2001/REC-SVG-20010904/DTD/svg10.dtd">
<svg version="1.0" xmlns="http://www.w3.org/2000/svg"
 width="250.000000pt" height="70.000000pt" viewBox="0 0 250.000000 70.000000"
 preserveAspectRatio="xMidYMid meet">
<metadata>
Created by potrace 1.10, written by Peter Selinger 2001-2011
</metadata>
<g transform="translate(0.000000,70.000000) scale(0.100000,-0.100000)"
fill="#000000" stroke="none">
<path d="M182 510 l3 -90 -48 0 -48 0 2 -170 1 -170 274 0 274 0 0 170 0 170
-47 0 -48 0 3 90 4 90 -36 0 -36 0 0 -90 0 -90 -40 0 -40 0 0 90 0 90 -35 0
-35 0 4 -90 4 -90 -44 0 -44 0 0 90 0 90 -36 0 -36 0 4 -90z m186 -147 c-5 -7
-4 -13 4 -16 10 -4 10 -8 -2 -21 -14 -15 -16 -12 -18 26 -1 24 2 52 5 63 6 17
8 16 13 -10 4 -16 3 -35 -2 -42z m-138 16 c0 -22 -4 -38 -8 -35 -12 7 -13 76
-2 76 6 0 10 -18 10 -41z m298 -4 c0 -20 -5 -35 -11 -35 -7 0 -6 -4 3 -10 8
-5 11 -12 7 -17 -12 -12 -26 17 -22 46 2 14 4 34 4 44 2 34 19 7 19 -28z
m-339 -27 c-3 -50 -3 -51 29 -53 l32 -3 0 57 0 56 37 0 38 0 5 -54 c5 -53 6
-54 38 -55 l32 -1 0 55 0 55 40 0 40 0 0 -55 0 -56 35 0 35 0 0 58 c0 56 1 58
20 48 11 -6 25 -8 30 -5 6 4 10 -49 10 -144 l0 -150 -244 0 -245 0 0 147 0
147 27 6 c39 8 44 2 41 -53z m41 -28 c0 -5 -2 -10 -4 -10 -3 0 -8 5 -11 10 -3
6 -1 10 4 10 6 0 11 -4 11 -10z"/>
<path d="M770 400 l0 -130 65 0 c63 0 65 1 65 25 0 20 -5 25 -25 25 l-25 0 0
105 0 105 -40 0 -40 0 0 -130z m50 19 c0 -44 5 -89 10 -100 9 -16 7 -19 -9
-19 -24 0 -31 29 -30 124 1 58 5 76 15 76 11 0 14 -18 14 -81z"/>
<path d="M910 401 l0 -131 35 0 35 0 1 88 c0 58 3 80 9 67 5 -11 9 -36 9 -56
2 -72 12 -99 37 -99 19 0 24 7 29 43 4 24 7 74 8 113 2 67 3 69 30 72 l27 3 0
-100 c0 -112 -15 -137 -22 -36 -6 103 -24 98 -20 -5 l3 -90 35 0 34 0 0 130 0
130 -55 0 -55 0 0 -37 c0 -21 -3 -49 -7 -63 -6 -21 -9 -14 -18 35 l-10 60 -53
3 -52 3 0 -130z m88 76 c2 -10 -4 -24 -13 -31 -11 -8 -19 -34 -24 -74 -11 -97
-21 -85 -21 27 l0 102 27 -3 c17 -2 29 -10 31 -21z m51 -106 c0 -14 -4 -35 -8
-46 -7 -16 -9 -14 -14 14 -10 49 -9 58 8 58 10 0 15 -10 14 -26z"/>
<path d="M1222 520 c-29 -12 -44 -52 -32 -84 5 -14 30 -37 55 -52 34 -20 45
-32 43 -47 -5 -31 -28 -33 -28 -3 0 23 -4 26 -39 26 -38 0 -38 0 -32 -32 9
-41 42 -60 98 -55 58 6 73 21 73 72 0 41 -3 45 -50 74 -34 21 -50 37 -50 52 0
12 5 19 13 16 6 -2 11 -12 11 -21 -1 -12 7 -16 37 -16 40 0 50 16 31 47 -18
28 -86 40 -130 23z m15 -36 c-14 -14 18 -61 59 -87 37 -24 44 -34 42 -55 -3
-24 -14 -41 -28 -42 -3 0 -5 17 -5 37 0 32 -5 41 -43 66 -24 16 -46 36 -49 43
-7 19 4 44 18 44 7 0 10 -3 6 -6z m6 -165 c3 -13 1 -19 -6 -16 -15 5 -22 37
-9 37 5 0 12 -9 15 -21z"/>
<path d="M1440 523 c-43 -17 -50 -34 -50 -124 0 -84 1 -89 28 -109 21 -17 36
-21 70 -17 70 8 82 26 82 127 0 73 -3 90 -19 104 -20 19 -85 30 -111 19z m0
-124 c0 -57 -4 -88 -10 -84 -11 7 -14 158 -3 168 12 13 13 7 13 -84z m50 1 c0
-53 -4 -90 -10 -90 -6 0 -10 37 -10 90 0 53 4 90 10 90 6 0 10 -37 10 -90z
m48 5 c2 -50 -1 -82 -9 -89 -9 -8 -10 6 -7 59 3 39 1 81 -3 94 -7 16 -6 22 4
19 8 -3 13 -31 15 -83z"/>
<path d="M1600 400 l0 -130 33 0 32 0 -3 60 c-4 65 -18 81 -25 28 -2 -18 -5 6
-5 55 -1 48 0 87 2 87 2 0 18 -25 35 -55 32 -56 45 -61 61 -21 6 15 9 0 9 -51
1 -40 -2 -73 -5 -73 -3 0 -14 20 -24 44 -19 41 -62 93 -47 56 3 -8 13 -41 23
-72 16 -57 17 -58 53 -58 l36 0 0 130 0 130 -32 0 -33 0 -1 -62 -1 -63 -21 63
c-20 59 -22 62 -54 62 l-33 0 0 -130z"/>
<path d="M1800 400 l0 -130 65 0 c63 0 65 1 65 25 0 20 -5 25 -26 25 l-26 0 4
105 3 105 -42 0 -43 0 0 -130z m55 18 c-1 -60 3 -88 14 -100 13 -16 12 -18
-12 -18 l-27 0 0 100 c0 77 3 100 13 100 11 0 13 -20 12 -82z"/>
<path d="M1950 400 l0 -130 40 0 40 0 0 130 0 130 -40 0 -40 0 0 -130z m46 0
c1 -69 -3 -100 -11 -100 -11 0 -19 175 -8 193 14 22 19 -3 19 -93z"/>
<path d="M2060 400 l0 -130 36 0 37 0 -7 62 c-7 71 2 69 24 -5 15 -49 18 -52
53 -55 l37 -3 0 130 0 131 -36 0 -37 0 6 -61 c6 -70 -3 -67 -28 9 -16 49 -18
52 -51 52 l-34 0 0 -130z m70 56 c10 -24 23 -47 30 -51 16 -10 38 12 43 43 2
15 5 -12 6 -60 1 -100 -10 -112 -40 -43 -11 24 -24 47 -30 50 -18 12 -38 -16
-42 -58 -2 -23 -4 4 -5 61 -2 113 7 128 38 58z"/>
<path d="M2270 400 l0 -130 70 0 c68 0 70 1 70 25 0 21 -5 25 -30 25 -27 0
-30 3 -30 30 0 25 4 30 25 30 20 0 25 5 25 25 0 20 -5 25 -25 25 -20 0 -25 5
-25 25 0 20 5 25 25 25 20 0 25 5 25 25 0 24 -2 25 -65 25 l-65 0 0 -130z m57
71 c-9 -25 -8 -33 8 -51 18 -20 18 -22 2 -31 -20 -12 -23 -59 -4 -78 10 -10 7
-12 -13 -9 -14 1 -24 6 -22 11 1 4 2 48 2 97 0 82 2 90 19 90 17 0 18 -3 8
-29z"/>
<path d="M790 195 c0 -32 2 -35 28 -34 23 2 24 2 5 6 -27 5 -31 23 -5 24 14 0
14 2 -3 9 -19 8 -19 9 3 9 30 1 28 21 -3 21 -22 0 -25 -4 -25 -35z"/>
<path d="M870 211 c0 -11 -8 -22 -17 -24 -17 -4 -17 -5 0 -6 9 0 17 -5 17 -11
0 -16 88 -9 94 7 4 8 4 19 0 24 -10 16 -36 9 -41 -11 -8 -32 -33 -24 -33 10 0
17 -4 30 -10 30 -5 0 -10 -9 -10 -19z"/>
<path d="M1118 195 c2 -19 6 -35 8 -35 2 0 4 16 4 35 0 19 -4 35 -8 35 -4 0
-6 -16 -4 -35z"/>
<path d="M1398 211 c-27 -26 -23 -51 7 -51 22 0 25 4 25 35 0 39 -7 42 -32 16z
m12 -26 c0 -8 -4 -15 -10 -15 -5 0 -10 7 -10 15 0 8 5 15 10 15 6 0 10 -7 10
-15z"/>
<path d="M1462 213 c-13 -24 3 -53 28 -53 11 0 20 5 20 10 0 6 -8 10 -17 8
-10 -2 -19 5 -21 16 -3 15 0 18 18 13 14 -3 20 -1 17 6 -6 20 -35 19 -45 0z"/>
<path d="M1575 203 c6 -26 5 -27 -8 -9 -17 23 -50 15 -45 -11 2 -12 14 -19 36
-20 30 -1 32 1 32 33 0 19 -5 34 -11 34 -7 0 -9 -10 -4 -27z m-24 -16 c-1 -12
-15 -9 -19 4 -3 6 1 10 8 8 6 -3 11 -8 11 -12z"/>
<path d="M1603 195 c0 -22 2 -30 4 -17 2 12 2 30 0 40 -3 9 -5 -1 -4 -23z"/>
<path d="M1670 200 c0 -34 22 -49 45 -30 10 9 15 9 15 1 0 -6 9 -11 20 -11 15
0 20 7 20 25 0 18 -5 25 -19 25 -11 0 -21 -5 -23 -10 -2 -6 -13 -2 -25 10 -29
27 -33 26 -33 -10z m40 -15 c0 -8 -4 -15 -10 -15 -5 0 -10 7 -10 15 0 8 5 15
10 15 6 0 10 -7 10 -15z m50 0 c0 -8 -4 -15 -10 -15 -5 0 -10 7 -10 15 0 8 5
15 10 15 6 0 10 -7 10 -15z"/>
<path d="M1903 195 c0 -22 2 -30 4 -17 2 12 2 30 0 40 -3 9 -5 -1 -4 -23z"/>
<path d="M2055 220 c-8 -14 3 -30 21 -30 8 0 14 -5 14 -11 0 -6 -9 -8 -21 -4
-15 5 -19 4 -15 -4 11 -17 46 -13 46 4 0 9 -7 18 -15 21 -8 4 -15 10 -15 15 0
4 7 5 17 2 11 -4 14 -3 9 5 -9 15 -33 16 -41 2z"/>
<path d="M1870 192 c0 -18 4 -32 8 -32 9 0 8 47 -1 57 -4 3 -7 -8 -7 -25z"/>
<path d="M2205 211 c-3 -6 -3 -16 1 -23 5 -8 2 -9 -10 -5 -10 4 -21 7 -24 7
-4 0 0 5 8 10 13 8 13 10 -1 10 -11 0 -16 -8 -16 -24 0 -20 4 -24 31 -23 26 1
31 5 30 24 -1 27 -10 38 -19 24z"/>
<path d="M977 191 c-6 -25 0 -31 35 -31 21 0 28 5 28 20 0 28 20 25 21 -2 0
-22 1 -22 11 2 11 25 11 25 15 3 3 -13 9 -23 14 -23 6 0 9 10 7 23 -2 18 -10
23 -40 25 -34 3 -38 1 -39 -20 l0 -23 -9 23 c-11 27 -36 29 -43 3z"/>
<path d="M1141 183 c2 -24 2 -25 6 -5 2 12 8 22 13 22 5 0 11 -10 13 -22 4
-20 4 -19 6 5 1 21 -4 27 -19 27 -15 0 -20 -6 -19 -27z"/>
<path d="M1195 198 c-9 -26 2 -53 21 -53 14 0 20 8 22 33 3 27 0 32 -18 32
-11 0 -23 -6 -25 -12z m29 -19 c-3 -5 -10 -7 -15 -3 -5 3 -7 10 -3 15 3 5 10
7 15 3 5 -3 7 -10 3 -15z"/>
<path d="M1270 185 c0 -22 4 -25 34 -25 28 0 35 4 39 23 4 22 4 22 15 -3 l12
-25 -3 25 c-1 18 -9 26 -26 28 -18 3 -22 0 -18 -12 3 -8 2 -18 -3 -21 -6 -4
-10 3 -10 14 0 14 -6 21 -20 21 -15 0 -20 -7 -20 -25z"/>
<path d="M1620 185 c0 -20 5 -25 24 -25 19 0 22 4 18 25 -3 16 -11 25 -23 25
-14 0 -19 -7 -19 -25z"/>
<path d="M1780 185 c0 -14 4 -25 9 -25 5 0 11 11 13 25 4 17 1 25 -8 25 -8 0
-14 -11 -14 -25z"/>
<path d="M1817 191 c-6 -24 0 -31 25 -31 14 0 19 6 16 22 -4 29 -34 36 -41 9z"/>
<path d="M1924 195 c-4 -9 -2 -21 4 -27 15 -15 44 -1 40 19 -4 23 -36 29 -44
8z m26 -11 c0 -8 -4 -12 -10 -9 -5 3 -10 10 -10 16 0 5 5 9 10 9 6 0 10 -7 10
-16z"/>
<path d="M1981 183 c2 -24 2 -25 6 -5 2 12 8 22 13 22 5 0 11 -10 13 -22 4
-20 4 -19 6 5 1 21 -4 27 -19 27 -15 0 -20 -6 -19 -27z"/>
<path d="M2114 175 c1 -41 13 -45 26 -9 13 33 13 54 0 34 -8 -12 -12 -12 -18
-2 -5 8 -8 -1 -8 -23z"/>
<path d="M2234 196 c-8 -20 3 -36 24 -36 15 0 15 2 2 10 -13 8 -12 10 3 10 11
0 17 6 15 13 -7 18 -37 21 -44 3z"/>
<path d="M2291 182 c2 -24 2 -25 6 -4 2 12 8 22 13 22 5 0 11 -10 13 -22 l4
-23 2 23 c0 12 5 22 10 22 5 0 12 -10 14 -22 4 -21 4 -20 6 4 1 23 -2 26 -34
26 -32 0 -35 -3 -34 -26z"/>
</g>
</svg>
